# This file uses centimeters as units for non-parametric coordinates.

mtllib fatcylinder.mtl
g default
v 0.623490 -0.500000 -0.781831
v -0.222521 -0.500000 -0.974928
v -0.900969 -0.500000 -0.433884
v -0.900969 -0.500000 0.433884
v -0.222521 -0.500000 0.974928
v 0.623490 -0.500000 0.781832
v 1.000000 -0.500000 0.000000
v 0.623490 0.500000 -0.781831
v -0.222521 0.500000 -0.974928
v -0.900969 0.500000 -0.433884
v -0.900969 0.500000 0.433884
v -0.222521 0.500000 0.974928
v 0.623490 0.500000 0.781832
v 1.000000 0.500000 0.000000
v 0.000000 -0.500000 0.000000
v 0.000000 0.500000 0.000000
vt 0.597420 0.034089
vt 0.465231 0.003918
vt 0.359224 0.088456
vt 0.359224 0.224044
vt 0.465231 0.308582
vt 0.597420 0.278411
vt 0.656250 0.156250
vt 0.375000 0.312500
vt 0.410714 0.312500
vt 0.446429 0.312500
vt 0.482143 0.312500
vt 0.517857 0.312500
vt 0.553571 0.312500
vt 0.589286 0.312500
vt 0.625000 0.312500
vt 0.375000 0.688440
vt 0.410714 0.688440
vt 0.446429 0.688440
vt 0.482143 0.688440
vt 0.517857 0.688440
vt 0.553571 0.688440
vt 0.589286 0.688440
vt 0.625000 0.688440
vt 0.597420 0.721589
vt 0.465231 0.691418
vt 0.359224 0.775956
vt 0.359224 0.911544
vt 0.465231 0.996082
vt 0.597420 0.965911
vt 0.656250 0.843750
vt 0.500000 0.150000
vt 0.500000 0.837500
vn 0.222521 0.000000 -0.974928
vn 0.222521 0.000000 -0.974928
vn 0.222521 0.000000 -0.974928
vn 0.222521 0.000000 -0.974928
vn -0.623490 0.000000 -0.781832
vn -0.623490 0.000000 -0.781832
vn -0.623490 0.000000 -0.781832
vn -0.623490 0.000000 -0.781832
vn -1.000000 0.000000 -0.000000
vn -1.000000 0.000000 -0.000000
vn -1.000000 0.000000 -0.000000
vn -1.000000 0.000000 -0.000000
vn -0.623490 0.000000 0.781832
vn -0.623490 0.000000 0.781831
vn -0.623490 0.000000 0.781831
vn -0.623490 0.000000 0.781831
vn 0.222521 0.000000 0.974928
vn 0.222521 0.000000 0.974928
vn 0.222521 0.000000 0.974928
vn 0.222521 0.000000 0.974928
vn 0.900969 0.000000 0.433884
vn 0.900969 0.000000 0.433884
vn 0.900969 0.000000 0.433884
vn 0.900969 0.000000 0.433884
vn 0.900969 0.000000 -0.433884
vn 0.900969 0.000000 -0.433884
vn 0.900969 0.000000 -0.433884
vn 0.900969 0.000000 -0.433884
vn 0.000000 -1.000000 -0.000000
vn 0.000000 -1.000000 -0.000000
vn 0.000000 -1.000000 -0.000000
vn 0.000000 -1.000000 0.000000
vn 0.000000 -1.000000 0.000000
vn 0.000000 -1.000000 0.000000
vn 0.000000 -1.000000 0.000000
vn 0.000000 -1.000000 0.000000
vn 0.000000 1.000000 0.000000
vn 0.000000 1.000000 0.000000
vn 0.000000 1.000000 0.000000
vn 0.000000 1.000000 0.000000
vn 0.000000 1.000000 0.000000
vn 0.000000 1.000000 0.000000
vn 0.000000 1.000000 0.000000
vn 0.000000 1.000000 0.000000
s 1
g pCylinder1
usemtl initialShadingGroup
f 1/8/1 2/9/2 8/16/3
f 8/16/3 2/9/2 9/17/4
s 2
f 2/9/5 3/10/6 9/17/7
f 9/17/7 3/10/6 10/18/8
s 3
f 3/10/9 4/11/10 10/18/11
f 10/18/11 4/11/10 11/19/12
s 4
f 4/11/13 5/12/14 11/19/15
f 11/19/15 5/12/14 12/20/16
s 5
f 5/12/17 6/13/18 12/20/19
f 12/20/19 6/13/18 13/21/20
s 6
f 6/13/21 7/14/22 13/21/23
f 13/21/23 7/14/22 14/22/24
s 7
f 7/14/25 1/15/26 14/22/27
f 14/22/27 1/15/26 8/23/28
s 8
f 2/2/29 1/1/30 15/31/31
f 3/3/32 2/2/29 15/31/31
f 4/4/33 3/3/32 15/31/31
f 5/5/34 4/4/33 15/31/31
f 6/6/35 5/5/34 15/31/31
f 7/7/36 6/6/35 15/31/31
f 1/1/30 7/7/36 15/31/31
s 9
f 8/29/37 9/28/38 16/32/39
f 9/28/38 10/27/40 16/32/39
f 10/27/40 11/26/41 16/32/39
f 11/26/41 12/25/42 16/32/39
f 12/25/42 13/24/43 16/32/39
f 13/24/43 14/30/44 16/32/39
f 14/30/44 8/29/37 16/32/39
g default
v 0.623490 -0.500000 -0.781831
v -0.222521 -0.500000 -0.974928
v -0.900969 -0.500000 -0.433884
v -0.900969 -0.500000 0.433884
v -0.222521 -0.500000 0.974928
v 0.623490 -0.500000 0.781832
v 1.000000 -0.500000 0.000000
v 0.623490 0.500000 -0.781831
v -0.222521 0.500000 -0.974928
v -0.900969 0.500000 -0.433884
v -0.900969 0.500000 0.433884
v -0.222521 0.500000 0.974928
v 0.623490 0.500000 0.781832
v 1.000000 0.500000 0.000000
v 0.000000 -0.500000 0.000000
v 0.000000 0.500000 0.000000
vt 0.597420 0.034089
vt 0.465231 0.003918
vt 0.359224 0.088456
vt 0.359224 0.224044
vt 0.465231 0.308582
vt 0.597420 0.278411
vt 0.656250 0.156250
vt 0.375000 0.312500
vt 0.410714 0.312500
vt 0.446429 0.312500
vt 0.482143 0.312500
vt 0.517857 0.312500
vt 0.553571 0.312500
vt 0.589286 0.312500
vt 0.625000 0.312500
vt 0.375000 0.688440
vt 0.410714 0.688440
vt 0.446429 0.688440
vt 0.482143 0.688440
vt 0.517857 0.688440
vt 0.553571 0.688440
vt 0.589286 0.688440
vt 0.625000 0.688440
vt 0.597420 0.721589
vt 0.465231 0.691418
vt 0.359224 0.775956
vt 0.359224 0.911544
vt 0.465231 0.996082
vt 0.597420 0.965911
vt 0.656250 0.843750
vt 0.500000 0.150000
vt 0.500000 0.837500
vn 0.222521 0.000000 -0.974928
vn 0.222521 0.000000 -0.974928
vn 0.222521 0.000000 -0.974928
vn 0.222521 0.000000 -0.974928
vn -0.623490 0.000000 -0.781832
vn -0.623490 0.000000 -0.781832
vn -0.623490 0.000000 -0.781832
vn -0.623490 0.000000 -0.781832
vn -1.000000 0.000000 -0.000000
vn -1.000000 0.000000 -0.000000
vn -1.000000 0.000000 -0.000000
vn -1.000000 0.000000 -0.000000
vn -0.623490 0.000000 0.781832
vn -0.623490 0.000000 0.781831
vn -0.623490 0.000000 0.781831
vn -0.623490 0.000000 0.781831
vn 0.222521 0.000000 0.974928
vn 0.222521 0.000000 0.974928
vn 0.222521 0.000000 0.974928
vn 0.222521 0.000000 0.974928
vn 0.900969 0.000000 0.433884
vn 0.900969 0.000000 0.433884
vn 0.900969 0.000000 0.433884
vn 0.900969 0.000000 0.433884
vn 0.900969 0.000000 -0.433884
vn 0.900969 0.000000 -0.433884
vn 0.900969 0.000000 -0.433884
vn 0.900969 0.000000 -0.433884
vn 0.000000 -1.000000 -0.000000
vn 0.000000 -1.000000 -0.000000
vn 0.000000 -1.000000 -0.000000
vn 0.000000 -1.000000 0.000000
vn 0.000000 -1.000000 0.000000
vn 0.000000 -1.000000 0.000000
vn 0.000000 -1.000000 0.000000
vn 0.000000 -1.000000 0.000000
vn 0.000000 1.000000 0.000000
vn 0.000000 1.000000 0.000000
vn 0.000000 1.000000 0.000000
vn 0.000000 1.000000 0.000000
vn 0.000000 1.000000 0.000000
vn 0.000000 1.000000 0.000000
vn 0.000000 1.000000 0.000000
vn 0.000000 1.000000 0.000000
s 1
g pCylinder1
f 17/40/45 18/41/46 24/48/47
f 24/48/47 18/41/46 25/49/48
s 2
f 18/41/49 19/42/50 25/49/51
f 25/49/51 19/42/50 26/50/52
s 3
f 19/42/53 20/43/54 26/50/55
f 26/50/55 20/43/54 27/51/56
s 4
f 20/43/57 21/44/58 27/51/59
f 27/51/59 21/44/58 28/52/60
s 5
f 21/44/61 22/45/62 28/52/63
f 28/52/63 22/45/62 29/53/64
s 6
f 22/45/65 23/46/66 29/53/67
f 29/53/67 23/46/66 30/54/68
s 7
f 23/46/69 17/47/70 30/54/71
f 30/54/71 17/47/70 24/55/72
s 8
f 18/34/73 17/33/74 31/63/75
f 19/35/76 18/34/73 31/63/75
f 20/36/77 19/35/76 31/63/75
f 21/37/78 20/36/77 31/63/75
f 22/38/79 21/37/78 31/63/75
f 23/39/80 22/38/79 31/63/75
f 17/33/74 23/39/80 31/63/75
s 9
f 24/61/81 25/60/82 32/64/83
f 25/60/82 26/59/84 32/64/83
f 26/59/84 27/58/85 32/64/83
f 27/58/85 28/57/86 32/64/83
f 28/57/86 29/56/87 32/64/83
f 29/56/87 30/62/88 32/64/83
f 30/62/88 24/61/81 32/64/83
